<mxfile host="Electron" modified="2024-06-04T15:53:40.897Z" agent="Mozilla/5.0 (Windows NT 10.0; Win64; x64) AppleWebKit/537.36 (KHTML, like Gecko) draw.io/24.4.8 Chrome/124.0.6367.207 Electron/30.0.6 Safari/537.36" etag="gG81sY3vPJLKeyUDnNPs" version="24.4.8" type="device" pages="2">
  <diagram name="第 1 页" id="Ty_jgGtQlDd5EPMEL7qb">
    <mxGraphModel dx="1182" dy="683" grid="1" gridSize="10" guides="1" tooltips="1" connect="1" arrows="1" fold="1" page="1" pageScale="1" pageWidth="827" pageHeight="1169" math="0" shadow="0">
      <root>
        <mxCell id="0" />
        <mxCell id="1" parent="0" />
        <mxCell id="Y73cy8-Qy4WdDrIr0cNq-3" style="edgeStyle=orthogonalEdgeStyle;rounded=0;orthogonalLoop=1;jettySize=auto;html=1;exitX=0.5;exitY=1;exitDx=0;exitDy=0;" edge="1" parent="1" source="Y73cy8-Qy4WdDrIr0cNq-1" target="Y73cy8-Qy4WdDrIr0cNq-2">
          <mxGeometry relative="1" as="geometry" />
        </mxCell>
        <mxCell id="Y73cy8-Qy4WdDrIr0cNq-1" value="" style="ellipse;whiteSpace=wrap;html=1;aspect=fixed;" vertex="1" parent="1">
          <mxGeometry x="60" y="60" width="80" height="80" as="geometry" />
        </mxCell>
        <mxCell id="Y73cy8-Qy4WdDrIr0cNq-2" value="&lt;div style=&quot;background-color:#1e1f22;color:#bcbec4&quot;&gt;&lt;pre style=&quot;font-family:&#39;Fira Code Medium&#39;,monospace;font-size:10.5pt;&quot;&gt;&lt;div&gt;&lt;pre style=&quot;font-family:&#39;Fira Code Medium&#39;,monospace;font-size:10.5pt;&quot;&gt;FrameworkServlet&lt;/pre&gt;&lt;/div&gt;&lt;/pre&gt;&lt;/div&gt;" style="rounded=0;whiteSpace=wrap;html=1;" vertex="1" parent="1">
          <mxGeometry x="20" y="230" width="160" height="60" as="geometry" />
        </mxCell>
        <mxCell id="Y73cy8-Qy4WdDrIr0cNq-4" value="&lt;font style=&quot;font-size: 12px;&quot;&gt;:&lt;span style=&quot;font-family: &amp;quot;Fira Code Medium&amp;quot;, monospace;&quot;&gt;HttpServlet&lt;/span&gt;&lt;/font&gt;" style="shape=umlLifeline;perimeter=lifelinePerimeter;html=1;container=1;dropTarget=0;collapsible=0;recursiveResize=0;outlineConnect=0;portConstraint=eastwest;newEdgeStyle={&quot;curved&quot;:0,&quot;rounded&quot;:0};fontColor=default;labelBackgroundColor=none;labelBorderColor=none;" vertex="1" parent="1">
          <mxGeometry x="80" y="420" width="100" height="410" as="geometry" />
        </mxCell>
        <mxCell id="Y73cy8-Qy4WdDrIr0cNq-5" value="" style="html=1;points=[[0,0,0,0,5],[0,1,0,0,-5],[1,0,0,0,5],[1,1,0,0,-5]];perimeter=orthogonalPerimeter;outlineConnect=0;targetShapes=umlLifeline;portConstraint=eastwest;newEdgeStyle={&quot;curved&quot;:0,&quot;rounded&quot;:0};fontColor=default;labelBackgroundColor=none;labelBorderColor=none;" vertex="1" parent="Y73cy8-Qy4WdDrIr0cNq-4">
          <mxGeometry x="45" y="125" width="10" height="215" as="geometry" />
        </mxCell>
        <mxCell id="Y73cy8-Qy4WdDrIr0cNq-6" value="&lt;div style=&quot;&quot;&gt;&lt;pre style=&quot;font-family: &amp;quot;Fira Code Medium&amp;quot;, monospace;&quot;&gt;&lt;font style=&quot;font-size: 12px;&quot;&gt;FrameworkServlet&lt;/font&gt;&lt;/pre&gt;&lt;/div&gt;" style="shape=umlLifeline;html=1;container=1;dropTarget=0;collapsible=0;recursiveResize=0;outlineConnect=0;portConstraint=eastwest;newEdgeStyle={&quot;curved&quot;:0,&quot;rounded&quot;:0};points=[[0,0,0,0,5],[0,1,0,0,-5],[1,0,0,0,5],[1,1,0,0,-5]];perimeter=rectanglePerimeter;targetShapes=umlLifeline;participant=label;fontColor=default;labelBackgroundColor=none;labelBorderColor=none;" vertex="1" parent="1">
          <mxGeometry x="300" y="420" width="100" height="500" as="geometry" />
        </mxCell>
        <mxCell id="Y73cy8-Qy4WdDrIr0cNq-7" value="" style="html=1;points=[[0,0,0,0,5],[0,1,0,0,-5],[1,0,0,0,5],[1,1,0,0,-5]];perimeter=orthogonalPerimeter;outlineConnect=0;targetShapes=umlLifeline;portConstraint=eastwest;newEdgeStyle={&quot;curved&quot;:0,&quot;rounded&quot;:0};fontColor=default;labelBackgroundColor=none;labelBorderColor=none;" vertex="1" parent="Y73cy8-Qy4WdDrIr0cNq-6">
          <mxGeometry x="45" y="165" width="10" height="105" as="geometry" />
        </mxCell>
        <mxCell id="Y73cy8-Qy4WdDrIr0cNq-12" value="" style="html=1;points=[[0,0,0,0,5],[0,1,0,0,-5],[1,0,0,0,5],[1,1,0,0,-5]];perimeter=orthogonalPerimeter;outlineConnect=0;targetShapes=umlLifeline;portConstraint=eastwest;newEdgeStyle={&quot;curved&quot;:0,&quot;rounded&quot;:0};fontColor=default;labelBackgroundColor=none;labelBorderColor=none;" vertex="1" parent="Y73cy8-Qy4WdDrIr0cNq-6">
          <mxGeometry x="45" y="300" width="10" height="90" as="geometry" />
        </mxCell>
        <mxCell id="Y73cy8-Qy4WdDrIr0cNq-13" value="&lt;div style=&quot;font-size: 10px;&quot;&gt;&lt;pre style=&quot;font-family: &amp;quot;Fira Code Medium&amp;quot;, monospace; font-size: 10px;&quot;&gt;processRequest&lt;/pre&gt;&lt;/div&gt;" style="html=1;align=left;spacingLeft=2;endArrow=block;rounded=0;edgeStyle=orthogonalEdgeStyle;curved=0;rounded=0;fontColor=default;labelBackgroundColor=none;labelBorderColor=none;fontSize=10;" edge="1" target="Y73cy8-Qy4WdDrIr0cNq-12" parent="Y73cy8-Qy4WdDrIr0cNq-6" source="Y73cy8-Qy4WdDrIr0cNq-7">
          <mxGeometry relative="1" as="geometry">
            <mxPoint x="50" y="370" as="sourcePoint" />
            <Array as="points">
              <mxPoint x="80" y="218" />
              <mxPoint x="80" y="320" />
            </Array>
          </mxGeometry>
        </mxCell>
        <mxCell id="Y73cy8-Qy4WdDrIr0cNq-8" value="根据request method调用对应方法" style="html=1;verticalAlign=bottom;startArrow=oval;endArrow=block;startSize=8;curved=0;rounded=0;entryX=0;entryY=0;entryDx=0;entryDy=5;fontColor=default;labelBackgroundColor=none;labelBorderColor=none;" edge="1" target="Y73cy8-Qy4WdDrIr0cNq-7" parent="1" source="Y73cy8-Qy4WdDrIr0cNq-5">
          <mxGeometry relative="1" as="geometry">
            <mxPoint x="275" y="590" as="sourcePoint" />
          </mxGeometry>
        </mxCell>
        <mxCell id="Y73cy8-Qy4WdDrIr0cNq-9" value="&lt;div style=&quot;&quot;&gt;&lt;pre style=&quot;font-family: &amp;quot;Fira Code Medium&amp;quot;, monospace;&quot;&gt;&lt;font style=&quot;font-size: 12px;&quot;&gt;DispatcherServlet&lt;/font&gt;&lt;/pre&gt;&lt;/div&gt;" style="shape=umlLifeline;perimeter=lifelinePerimeter;html=1;container=1;dropTarget=0;collapsible=0;recursiveResize=0;outlineConnect=0;portConstraint=eastwest;newEdgeStyle={&quot;curved&quot;:0,&quot;rounded&quot;:0};fontColor=default;labelBackgroundColor=none;labelBorderColor=none;" vertex="1" parent="1">
          <mxGeometry x="570" y="420" width="100" height="510" as="geometry" />
        </mxCell>
        <mxCell id="Y73cy8-Qy4WdDrIr0cNq-14" value="" style="html=1;points=[[0,0,0,0,5],[0,1,0,0,-5],[1,0,0,0,5],[1,1,0,0,-5]];perimeter=orthogonalPerimeter;outlineConnect=0;targetShapes=umlLifeline;portConstraint=eastwest;newEdgeStyle={&quot;curved&quot;:0,&quot;rounded&quot;:0};fontColor=default;labelBackgroundColor=none;labelBorderColor=none;" vertex="1" parent="Y73cy8-Qy4WdDrIr0cNq-9">
          <mxGeometry x="45" y="350" width="10" height="80" as="geometry" />
        </mxCell>
        <mxCell id="Y73cy8-Qy4WdDrIr0cNq-15" value="&lt;div style=&quot;font-size: 10px;&quot;&gt;&lt;pre style=&quot;font-family: &amp;quot;Fira Code Medium&amp;quot;, monospace; font-size: 10px;&quot;&gt;&lt;span style=&quot;font-size: 10px;&quot;&gt;doService&lt;/span&gt;&lt;/pre&gt;&lt;/div&gt;" style="html=1;verticalAlign=bottom;startArrow=oval;endArrow=block;startSize=8;curved=0;rounded=0;entryX=0;entryY=0;entryDx=0;entryDy=5;fontColor=default;labelBackgroundColor=none;labelBorderColor=none;fontSize=10;" edge="1" target="Y73cy8-Qy4WdDrIr0cNq-14" parent="1" source="Y73cy8-Qy4WdDrIr0cNq-12">
          <mxGeometry x="0.1154" y="-5" relative="1" as="geometry">
            <mxPoint x="545" y="775" as="sourcePoint" />
            <mxPoint as="offset" />
          </mxGeometry>
        </mxCell>
      </root>
    </mxGraphModel>
  </diagram>
  <diagram id="E1NuTx04tbOHl2mFJKKF" name="第 2 页">
    <mxGraphModel dx="1418" dy="820" grid="1" gridSize="10" guides="1" tooltips="1" connect="1" arrows="1" fold="1" page="1" pageScale="1" pageWidth="827" pageHeight="1169" math="0" shadow="0">
      <root>
        <mxCell id="0" />
        <mxCell id="1" parent="0" />
        <mxCell id="fqjNywImO57ePQpvHT93-1" value="" style="ellipse;whiteSpace=wrap;html=1;aspect=fixed;" vertex="1" parent="1">
          <mxGeometry x="250" y="100" width="80" height="80" as="geometry" />
        </mxCell>
        <mxCell id="fqjNywImO57ePQpvHT93-2" value="" style="rounded=0;whiteSpace=wrap;html=1;" vertex="1" parent="1">
          <mxGeometry x="230" y="250" width="120" height="60" as="geometry" />
        </mxCell>
      </root>
    </mxGraphModel>
  </diagram>
</mxfile>
